<?xml version="1.0" encoding="utf-8"?>
<!-- Generator: Adobe Illustrator 19.0.0, SVG Export Plug-In . SVG Version: 6.00 Build 0)  -->
<svg version="1.1" id="Modo_de_isolamento" xmlns="http://www.w3.org/2000/svg" xmlns:xlink="http://www.w3.org/1999/xlink" x="0px"
	 y="0px" viewBox="0 0 1612.2 109.2" style="enable-background:new 0 0 1612.2 109.2;" xml:space="preserve">
<polygon style="fill:#709ec5;" points="1608.4,0 1579.1,60 1550.8,46.1 1573.4,0 1569.6,0 1540.2,60.1 1511.9,46.2 1534.5,0 1530.7,0 
	1501.3,60 1473,46.1 1495.6,0 1491.8,0 1462.4,60.1 1434.1,46.2 1456.7,0 1452.9,0 1423.6,60 1395.3,46.1 1417.8,0 1414,0 
	1384.6,60.1 1356.4,46.2 1379,0 1375.2,0 1345.8,60.1 1317.5,46.2 1340.1,0 1336.3,0 1306.8,60.2 1278.6,46.3 1301.2,0 1297.4,0 
	1268.1,60 1239.8,46 1262.3,0 1258.5,0 1229.1,60.1 1200.9,46.2 1223.5,0 1219.7,0 1190.4,60.1 1162.1,46.1 1184.6,0 1180.8,0 
	1151.4,60.2 1123.1,46.2 1145.8,0 1142,0 1112.6,60 1084.3,46.1 1106.9,0 1103.1,0 1073.7,60.1 1045.4,46.2 1068,0 1064.2,0 
	1034.8,60.1 1006.5,46.2 1029.1,0 1025.3,0 995.9,60.2 967.6,46.3 990.2,0 986.4,0 957.1,60 928.8,46.1 951.3,0 947.5,0 918.2,60.1 
	889.9,46.2 912.5,0 908.7,0 879.3,60.1 851,46.1 873.6,0 869.8,0 840.4,60.2 812.1,46.3 834.7,0 830.9,0 801.6,60 773.3,46.1 
	795.8,0 792,0 762.7,60.1 734.4,46.2 756.9,0 753.2,0 723.8,60 695.5,46.1 718.1,0 714.3,0 684.9,60.1 656.6,46.2 679.2,0 675.4,0 
	646,60 617.8,46.1 640.3,0 636.5,0 607.1,60.1 578.8,46.2 601.4,0 597.6,0 568.3,60.1 540,46.2 562.5,0 558.7,0 529.3,60.2 
	501,46.3 523.7,0 519.9,0 490.6,60 462.3,46 484.8,0 481,0 451.6,60.1 423.4,46.2 446,0 442.2,0 412.8,60.1 384.5,46.1 407.1,0 
	403.3,0 373.9,60.2 345.6,46.2 368.2,0 364.4,0 335.1,60 306.8,46.1 329.3,0 325.5,0 296.1,60.1 267.9,46.2 290.5,0 286.7,0 
	257.3,60.1 229,46.2 251.6,0 247.8,0 218.3,60.2 190.1,46.3 212.7,0 208.9,0 179.6,60 151.3,46.1 173.8,0 170,0 140.6,60.1 
	112.4,46.2 134.9,0 131.1,0 101.8,60.1 73.5,46.1 96.1,0 92.3,0 62.8,60.2 34.6,46.2 57.2,0 53.4,0 0,109.2 3.8,109.2 33.1,49.3 
	61.3,63.2 38.9,109.2 42.7,109.2 72,49.2 100.3,63.1 77.8,109.2 81.6,109.2 110.9,49.2 139.1,63.1 116.6,109.2 120.4,109.2 
	149.8,49.1 178.1,63 155.5,109.2 159.3,109.2 188.6,49.3 216.9,63.3 194.4,109.2 198.2,109.2 227.5,49.2 255.8,63.2 233.3,109.2 
	237.1,109.2 266.4,49.3 294.7,63.2 272.2,109.2 276,109.2 305.3,49.2 333.6,63.1 311.1,109.2 314.8,109.2 344.1,49.3 372.4,63.2 
	349.9,109.2 353.7,109.2 383,49.2 411.3,63.1 388.8,109.2 392.6,109.2 421.9,49.2 450.1,63.1 427.6,109.2 431.4,109.2 460.8,49.1 
	489.1,63 466.5,109.2 470.3,109.2 499.5,49.3 527.8,63.2 505.4,109.2 509.2,109.2 538.5,49.2 566.8,63.1 544.3,109.2 548,109.2 
	577.3,49.3 605.6,63.2 583.1,109.2 586.9,109.2 616.3,49.1 644.6,63.1 622,109.2 625.8,109.2 655.1,49.3 683.4,63.2 660.9,109.2 
	664.7,109.2 694,49.2 722.3,63.1 699.8,109.2 703.6,109.2 732.9,49.2 761.2,63.1 738.7,109.2 742.5,109.2 771.8,49.1 800.1,63 
	777.5,109.2 781.3,109.2 810.6,49.3 838.9,63.2 816.4,109.2 820.2,109.2 849.5,49.2 877.8,63.1 855.3,109.2 859.1,109.2 888.4,49.2 
	916.7,63.1 894.2,109.2 898,109.2 927.3,49.1 955.6,63 933.1,109.2 936.8,109.2 966.1,49.3 994.4,63.3 971.9,109.2 975.7,109.2 
	1005,49.2 1033.3,63.2 1010.8,109.2 1014.6,109.2 1043.9,49.3 1072.2,63.2 1049.7,109.2 1053.5,109.2 1082.8,49.2 1111.1,63.1 
	1088.6,109.2 1092.4,109.2 1121.6,49.3 1149.9,63.2 1127.5,109.2 1131.3,109.2 1160.6,49.2 1188.9,63.1 1166.3,109.2 1170.1,109.2 
	1199.4,49.2 1227.6,63.1 1205.1,109.2 1208.9,109.2 1238.3,49.1 1266.6,63 1244,109.2 1247.8,109.2 1277.1,49.3 1305.4,63.2 
	1282.9,109.2 1286.7,109.2 1316,49.2 1344.3,63.1 1321.8,109.2 1325.6,109.2 1354.9,49.3 1383.2,63.2 1360.7,109.2 1364.5,109.2 
	1393.8,49.1 1422.1,63.1 1399.5,109.2 1403.3,109.2 1432.6,49.3 1460.9,63.2 1438.4,109.2 1442.2,109.2 1471.5,49.2 1499.8,63.1 
	1477.3,109.2 1481.1,109.2 1510.4,49.2 1538.7,63.1 1516.2,109.2 1520,109.2 1549.3,49.1 1577.6,63 1555.1,109.2 1558.9,109.2 
	1612.2,0 "/>
</svg>
