<?xml version="1.0" encoding="iso-8859-1"?>
<!-- Generator: Adobe Illustrator 19.0.0, SVG Export Plug-In . SVG Version: 6.00 Build 0)  -->
<svg version="1.1" id="Capa_1" xmlns="http://www.w3.org/2000/svg" xmlns:xlink="http://www.w3.org/1999/xlink" x="0px" y="0px"
	 viewBox="0 0 512 512" style="enable-background:new 0 0 512 512;" xml:space="preserve" fill="#fff">
<g>
	<g>
		<path d="M105.909,0v35.303H70.606v64.952l-35.303,35.303v373.815h243.046v-15.13H50.433V146.255h60.519V85.736h237.035v160.195
			h15.13V70.606H100.254L85.736,85.125V50.433H383.29v222.863h15.13V35.303H121.039V15.13h297.554v250.591h15.13V0H105.909z
			 M95.823,96.434v34.692H61.131L95.823,96.434z"/>
	</g>
</g>
<g>
	<g>
		<path d="M355.552,317.727c-12.513,0-22.695,10.18-22.695,22.695v40.346c0,12.514,10.181,22.695,22.695,22.695
			s22.695-10.18,22.695-22.695v-40.346C378.247,327.908,368.065,317.727,355.552,317.727z M363.117,380.768
			c0,4.172-3.393,7.565-7.565,7.565c-4.172,0-7.565-3.393-7.565-7.565v-40.346c0-4.172,3.393-7.565,7.565-7.565
			c4.172,0,7.565,3.393,7.565,7.565V380.768z"/>
	</g>
</g>
<g>
	<g>
		<path d="M355.552,418.593c-12.513,0-22.695,10.18-22.695,22.695c0,12.514,10.181,22.695,22.695,22.695s22.695-10.18,22.695-22.695
			C378.247,428.774,368.065,418.593,355.552,418.593z M355.552,448.853c-4.172,0-7.565-3.393-7.565-7.565
			c0-4.172,3.393-7.565,7.565-7.565c4.172,0,7.565,3.393,7.565,7.565C363.117,445.46,359.723,448.853,355.552,448.853z"/>
	</g>
</g>
<g>
	<g>
		<path d="M476.697,390.855l-23.605-26.141l7.39-34.454l-33.54-10.797l-10.796-33.539l-34.454,7.39l-26.141-23.605l-26.141,23.605
			l-34.453-7.39l-10.797,33.539l-33.54,10.797l7.39,34.454l-23.606,26.141l23.605,26.141l-7.39,34.454l33.54,10.797l10.796,33.539
			l34.454-7.39L355.551,512l26.141-23.605l34.453,7.39l10.797-33.539l33.54-10.797l-7.39-34.454L476.697,390.855z M414.92,450.223
			l-8.982,27.899l-28.64-6.143l-21.747,19.636l-21.747-19.636l-28.641,6.143l-8.981-27.901l-27.899-8.981l6.144-28.64
			l-19.635-21.746l19.636-21.746l-6.144-28.641l27.899-8.981l8.982-27.899l28.64,6.143l21.747-19.636l21.747,19.636l28.641-6.143
			l8.981,27.901l27.899,8.981l-6.144,28.64l19.636,21.746l-19.636,21.746l6.144,28.641L414.92,450.223z"/>
	</g>
</g>
<g>
	<g>
		<path d="M80.693,166.429v55.476h237.035v-55.476H80.693z M302.597,206.775H95.823v-25.216h206.775V206.775z"/>
	</g>
</g>
<g>
	<g>
		<rect x="140.708" y="257.208" width="15.13" height="15.13"/>
	</g>
</g>
<g>
	<g>
		<rect x="80.188" y="257.208" width="15.13" height="15.13"/>
	</g>
</g>
<g>
	<g>
		<rect x="110.448" y="257.208" width="15.13" height="15.13"/>
	</g>
</g>
<g>
	<g>
		<rect x="120.535" y="297.554" width="149.695" height="15.13"/>
	</g>
</g>
<g>
	<g>
		<rect x="80.188" y="337.901" width="155.646" height="15.13"/>
	</g>
</g>
<g>
	<g>
		<rect x="80.188" y="378.247" width="134.989" height="15.13"/>
	</g>
</g>
<g>
	<g>
		<rect x="80.188" y="418.593" width="43.372" height="15.13"/>
	</g>
</g>
<g>
	<g>
		<rect x="138.69" y="418.593" width="15.13" height="15.13"/>
	</g>
</g>
<g>
	<g>
		<rect x="168.95" y="418.593" width="15.13" height="15.13"/>
	</g>
</g>
<g>
	<g>
		<polygon points="284.946,100.866 284.946,115.996 317.727,115.996 317.727,148.777 332.857,148.777 332.857,100.866 		"/>
	</g>
</g>
<g>
	<g>
		<polygon points="80.693,463.983 80.693,449.357 65.563,449.357 65.563,479.113 95.318,479.113 95.318,463.983 		"/>
	</g>
</g>
<g>
	<g>
		<rect x="284.946" y="383.29" width="15.13" height="15.13"/>
	</g>
</g>
<g>
	<g>
		<g>
			<rect x="165.924" y="100.866" width="15.13" height="15.13"/>
			<rect x="196.184" y="100.866" width="50.433" height="15.13"/>
		</g>
	</g>
</g>
<g>
	<g>
		<g>
			<rect x="155.838" y="463.983" width="15.13" height="15.13"/>
			<rect x="186.097" y="463.983" width="50.433" height="15.13"/>
		</g>
	</g>
</g>
<g>
	<g>
		<rect x="411.028" y="383.29" width="15.13" height="15.13"/>
	</g>
</g>
<g>
</g>
<g>
</g>
<g>
</g>
<g>
</g>
<g>
</g>
<g>
</g>
<g>
</g>
<g>
</g>
<g>
</g>
<g>
</g>
<g>
</g>
<g>
</g>
<g>
</g>
<g>
</g>
<g>
</g>
</svg>
